<svg width="20" height="20" viewBox="0 0 20 20" fill="none" xmlns="http://www.w3.org/2000/svg">
<path d="M20 0V20H0V0H20ZM12.3606 0.714287H12.3103C11.0231 0.714287 9.99253 1.09563 9.21873 1.85826C8.45267 2.61326 8.0658 3.67277 8.0582 5.03669L8.05807 5.07813V7.51113H5.21205V10.8147H8.05807V19.2857H11.4732V10.8147H14.3081L14.7433 7.51113H11.4732V5.40179C11.4732 4.86607 11.5848 4.46429 11.8081 4.19643C12.0278 3.93268 12.4495 3.79879 13.0733 3.79473L13.1027 3.79464H14.8549V0.848213C14.2707 0.761693 13.456 0.717053 12.4105 0.71442L12.3605 0.714287H12.3606Z" fill="#555555"/>
</svg>
