<svg width="20" height="20" viewBox="0 0 20 20" fill="none" xmlns="http://www.w3.org/2000/svg">
<path d="M0 10.2735V10.2381C0.000714287 12.7369 0.013125 13.0887 0.06 14.1233C0.226652 17.755 2.24169 19.7733 5.87665 19.94C6.9442 19.9883 7.28413 20 10 20H0V10.2735ZM10.234 1.8025C12.6897 1.80313 13.0183 1.81393 14.0417 1.86085C16.7517 1.98415 18.0175 3.27 18.1409 5.96C18.1877 6.98253 18.1978 7.31113 18.1983 9.7668V10.2349C18.1977 12.6913 18.1869 13.0191 18.1409 14.0417C18.0167 16.7291 16.7541 18.0175 14.0417 18.1409C13.0078 18.1882 12.6845 18.1987 10.1575 18.1991H9.8426C7.31707 18.1987 6.9922 18.1882 5.95915 18.1409C3.2425 18.0167 1.98335 16.725 1.86 14.0409C1.81313 13.0183 1.80232 12.6905 1.80169 10.2341V9.8426C1.80214 7.31707 1.81344 6.99307 1.86 5.95915C1.98415 3.27 3.24665 1.98335 5.95915 1.86C6.98247 1.81393 7.3104 1.80313 9.766 1.80255L10.234 1.8025ZM10 4.865C7.16413 4.865 4.865 7.16413 4.865 10C4.865 12.8359 7.16413 15.1359 10 15.1359C12.8359 15.1359 15.135 12.8366 15.135 10C15.135 7.16413 12.8359 4.865 10 4.865ZM10 6.66665C11.8409 6.66665 13.3333 8.15913 13.3333 10C13.3333 11.8417 11.8409 13.3333 10 13.3333C8.15913 13.3333 6.66665 11.8417 6.66665 10C6.66665 8.15913 8.15913 6.66665 10 6.66665ZM15.3383 3.4625C14.675 3.4625 14.1375 4 14.1375 4.6625C14.1375 5.325 14.675 5.8625 15.3383 5.8625C16.0009 5.8625 16.5375 5.325 16.5375 4.6625C16.5375 4 16.0009 3.4625 15.3383 3.4625ZM20 10V20H10C12.7159 20 13.0567 19.9883 14.1233 19.94C17.7517 19.7733 19.775 17.7583 19.9391 14.1233C19.9884 13.0567 20 12.7159 20 10ZM19.94 5.8775C19.7767 2.24915 17.7592 0.2275 14.1241 0.0608482C13.0887 0.013125 12.7369 0.000714287 10.2381 0H20V10C20 7.28413 19.9883 6.9442 19.94 5.8775ZM0 0H9.76193C7.26313 0.000714287 6.9122 0.013125 5.8775 0.06C2.24581 0.226652 0.2275 2.24169 0.0608482 5.87665C0.0133482 6.9072 0.000848213 7.2598 0 9.72647V0Z" fill="#555555"/>
</svg>
