<svg width="110" height="30" viewBox="0 0 110 30" fill="none" xmlns="http://www.w3.org/2000/svg">
<path d="M22.0703 0.5625H23.2227L12.5977 29H11.6016L12.5195 26.2266L22.0703 0.5625ZM11.3867 26.2266L12.3047 29H11.3086L0.683594 0.5625H1.83594L11.3867 26.2266ZM34.8633 29.3906C33.1576 29.3906 31.6016 28.9414 30.1953 28.043C28.7891 27.1445 27.6693 25.9076 26.8359 24.332C26.0156 22.7435 25.6055 20.9271 25.6055 18.8828V18.0234C25.6055 15.9661 26.0026 14.1432 26.7969 12.5547C27.6042 10.9661 28.6784 9.72266 30.0195 8.82422C31.3607 7.92578 32.8451 7.47656 34.4727 7.47656C36.0352 7.47656 37.4219 7.85417 38.6328 8.60938C39.8438 9.36458 40.7878 10.4193 41.4648 11.7734C42.1549 13.1276 42.5 14.7031 42.5 16.5V17.7305H26.2891V16.6758H41.4453V16.4219C41.4453 15.0026 41.1589 13.7005 40.5859 12.5156C40.013 11.3177 39.2057 10.3542 38.1641 9.625C37.1224 8.89583 35.8919 8.53125 34.4727 8.53125C32.9232 8.53125 31.556 8.96094 30.3711 9.82031C29.1992 10.6667 28.2878 11.8125 27.6367 13.2578C26.9857 14.6901 26.6602 16.2786 26.6602 18.0234V18.8828C26.6602 20.6406 27.0182 22.2357 27.7344 23.668C28.4635 25.1003 29.4466 26.2396 30.6836 27.0859C31.9206 27.9323 33.3138 28.3555 34.8633 28.3555C36.0742 28.3555 37.2005 28.1536 38.2422 27.75C39.2969 27.3464 40.2604 26.5781 41.1328 25.4453L41.875 25.9727C41.1719 26.9753 40.2474 27.7956 39.1016 28.4336C37.9688 29.0716 36.556 29.3906 34.8633 29.3906ZM48.4766 29H47.4219V7.86719H48.4766V11.5391V29ZM56.7383 8.62891C56.5299 8.60286 56.3086 8.57682 56.0742 8.55078C55.8529 8.52474 55.6185 8.51172 55.3711 8.51172C53.7956 8.51172 52.4805 8.92839 51.4258 9.76172C50.3711 10.5951 49.5768 11.7083 49.043 13.1016C48.5221 14.4818 48.2617 16.0052 48.2617 17.6719L47.5586 17.7305C47.5586 15.7513 47.8451 13.9935 48.418 12.457C48.9909 10.9076 49.8503 9.6901 50.9961 8.80469C52.1549 7.91927 53.6133 7.47656 55.3711 7.47656C55.6966 7.47656 55.9831 7.49609 56.2305 7.53516C56.4779 7.57422 56.6862 7.6263 56.8555 7.69141L56.7383 8.62891ZM68.9648 8.94141H59.1797V7.86719H68.9648V8.94141ZM64.1602 2.16406V23.9414C64.1602 25.1784 64.3034 26.1159 64.5898 26.7539C64.8893 27.3789 65.2799 27.8021 65.7617 28.0234C66.2565 28.2318 66.7839 28.3359 67.3438 28.3359C67.7474 28.3359 68.1055 28.3229 68.418 28.2969C68.7305 28.2578 69.069 28.2122 69.4336 28.1602L69.6094 29.1563C69.3229 29.2474 68.9518 29.306 68.4961 29.332C68.0404 29.3711 67.6758 29.3906 67.4023 29.3906C66.5039 29.3906 65.7292 29.2344 65.0781 28.9219C64.4401 28.5964 63.9453 28.0365 63.5938 27.2422C63.2552 26.4479 63.0859 25.3477 63.0859 23.9414V2.16406H64.1602ZM82.0508 29.3906C80.3451 29.3906 78.7891 28.9414 77.3828 28.043C75.9766 27.1445 74.8568 25.9076 74.0234 24.332C73.2031 22.7435 72.793 20.9271 72.793 18.8828V18.0234C72.793 15.9661 73.1901 14.1432 73.9844 12.5547C74.7917 10.9661 75.8659 9.72266 77.207 8.82422C78.5482 7.92578 80.0326 7.47656 81.6602 7.47656C83.2227 7.47656 84.6094 7.85417 85.8203 8.60938C87.0312 9.36458 87.9753 10.4193 88.6523 11.7734C89.3424 13.1276 89.6875 14.7031 89.6875 16.5V17.7305H73.4766V16.6758H88.6328V16.4219C88.6328 15.0026 88.3464 13.7005 87.7734 12.5156C87.2005 11.3177 86.3932 10.3542 85.3516 9.625C84.3099 8.89583 83.0794 8.53125 81.6602 8.53125C80.1107 8.53125 78.7435 8.96094 77.5586 9.82031C76.3867 10.6667 75.4753 11.8125 74.8242 13.2578C74.1732 14.6901 73.8477 16.2786 73.8477 18.0234V18.8828C73.8477 20.6406 74.2057 22.2357 74.9219 23.668C75.651 25.1003 76.6341 26.2396 77.8711 27.0859C79.1081 27.9323 80.5013 28.3555 82.0508 28.3555C83.2617 28.3555 84.388 28.1536 85.4297 27.75C86.4844 27.3464 87.4479 26.5781 88.3203 25.4453L89.0625 25.9727C88.3594 26.9753 87.4349 27.7956 86.2891 28.4336C85.1562 29.0716 83.7435 29.3906 82.0508 29.3906ZM100.801 17.2422L107.539 7.86719H108.867L101.445 18.1602L109.258 29H107.949L100.781 19.0781L93.6328 29H92.3242L100.137 18.1602L92.7148 7.86719H94.043L100.801 17.2422Z" fill="#F0F0F0"/>
</svg>
