<svg width="35" height="35" viewBox="0 0 35 35" fill="none" xmlns="http://www.w3.org/2000/svg">
<path d="M17.5 11.5661L16.6954 12.2701L21.4224 16.9971H10.8621V18.1035H21.4224L16.6954 22.7299L17.5 23.5345L23.4339 17.5L17.5 11.5661ZM17.5 0C19.9138 0 22.1851 0.452589 24.3139 1.35776C26.4428 2.26293 28.3034 3.51174 29.8958 5.10417C31.4883 6.6966 32.7371 8.55724 33.6422 10.6861C34.5474 12.8149 35 15.0862 35 17.5C35 19.9138 34.5474 22.1851 33.6422 24.3139C32.7371 26.4428 31.4883 28.3034 29.8958 29.8958C28.3034 31.4883 26.4428 32.7371 24.3139 33.6422C22.1851 34.5474 19.9138 35 17.5 35C15.0862 35 12.8149 34.5474 10.6861 33.6422C8.55724 32.7371 6.6966 31.4883 5.10417 29.8958C3.51174 28.3034 2.26293 26.4428 1.35776 24.3139C0.452589 22.1851 0 19.9138 0 17.5C0 15.0862 0.452589 12.8149 1.35776 10.6861C2.26293 8.55724 3.51174 6.6966 5.10417 5.10417C6.6966 3.51174 8.55724 2.26293 10.6861 1.35776C12.8149 0.452589 15.0862 0 17.5 0ZM17.5 1.10632C12.9406 1.10632 9.06849 2.70714 5.88362 5.90877C2.69876 9.11039 1.10632 12.9741 1.10632 17.5C1.10632 22.0594 2.69876 25.9315 5.88362 29.1164C9.06849 32.3012 12.9406 33.8937 17.5 33.8937C22.0259 33.8937 25.8896 32.3012 29.0912 29.1164C32.2929 25.9315 33.8937 22.0594 33.8937 17.5C33.8937 12.9741 32.2929 9.11039 29.0912 5.90877C25.8896 2.70714 22.0259 1.10632 17.5 1.10632Z" fill="#F0F0F0"/>
</svg>
