<svg width="35" height="35" viewBox="0 0 35 35" fill="none" xmlns="http://www.w3.org/2000/svg">
<path d="M17.5 23.4339L18.3046 22.7299L13.5776 18.0029H24.1379V16.8966H13.5776L18.3046 12.2701L17.5 11.4655L11.5661 17.5L17.5 23.4339ZM17.5 35C15.0862 35 12.8149 34.5474 10.6861 33.6422C8.55723 32.7371 6.6966 31.4883 5.10417 29.8958C3.51173 28.3034 2.26293 26.4428 1.35776 24.3139C0.452586 22.1851 0 19.9138 0 17.5C0 15.0862 0.452586 12.8149 1.35776 10.6861C2.26293 8.55723 3.51173 6.6966 5.10417 5.10417C6.6966 3.51173 8.55723 2.26293 10.6861 1.35776C12.8149 0.452586 15.0862 0 17.5 0C19.9138 0 22.1851 0.452586 24.3139 1.35776C26.4428 2.26293 28.3034 3.51173 29.8958 5.10417C31.4883 6.6966 32.7371 8.55723 33.6422 10.6861C34.5474 12.8149 35 15.0862 35 17.5C35 19.9138 34.5474 22.1851 33.6422 24.3139C32.7371 26.4428 31.4883 28.3034 29.8958 29.8958C28.3034 31.4883 26.4428 32.7371 24.3139 33.6422C22.1851 34.5474 19.9138 35 17.5 35ZM17.5 33.8937C22.0594 33.8937 25.9315 32.2929 29.1164 29.0912C32.3012 25.8896 33.8937 22.0259 33.8937 17.5C33.8937 12.9406 32.3012 9.06849 29.1164 5.88362C25.9315 2.69875 22.0594 1.10632 17.5 1.10632C12.9741 1.10632 9.11039 2.69875 5.90876 5.88362C2.70714 9.06849 1.10632 12.9406 1.10632 17.5C1.10632 22.0259 2.70714 25.8896 5.90876 29.0912C9.11039 32.2929 12.9741 33.8937 17.5 33.8937Z" fill="#F0F0F0"/>
</svg>
