<svg width="210" height="60" viewBox="0 0 210 60" fill="none" xmlns="http://www.w3.org/2000/svg">
<path fill-rule="evenodd" clip-rule="evenodd" d="M164.199 60H210V1.02791e-07L184.163 0C188.054 5.2971 190 11.3036 190 18.0195C190 25.1299 187.614 31.5097 182.842 37.1591C178.069 42.8084 171.855 47.2403 164.199 50.4545V60ZM128.033 1.31696e-07L179.712 5.2961e-08C184.263 5.30708 186.539 11.411 186.539 18.3117C186.539 23.6688 184.598 29.0503 180.718 34.4562C176.837 39.862 170.964 44.1721 163.097 47.3864L160.737 48.4091V60H141.072V53.961H121.563V30.1461H112.911L122.193 14.9513C122.511 9.3373 124.458 4.35354 128.033 1.31696e-07ZM124.134 2.11801e-07L0 1.02791e-07V60H137.611V57.1753H121.563C120.619 57.1753 119.807 56.8588 119.125 56.2256C118.443 55.5925 118.102 54.8377 118.102 53.961V33.3604H113.382C112.229 33.3604 111.285 32.7029 110.551 31.388C109.816 30.0731 109.816 28.7825 110.551 27.5162L118.574 14.513C119.408 8.97436 121.261 4.13669 124.134 2.11801e-07ZM156.018 30.8766L155.86 34.6753H152.399L152.242 30.8766C150.144 30.5844 148.361 30 146.893 29.1234C145.424 28.2468 144.218 27.3214 143.274 26.3474L139.656 27.9545L138.083 25.3247L141.072 23.1331C140.338 21.2825 139.971 19.5292 139.971 17.8734C139.971 16.2175 140.338 14.513 141.072 12.7597L138.083 10.5682L139.656 7.93831L143.274 9.54545C144.218 8.47402 145.424 7.5487 146.893 6.76948C148.361 5.99026 150.144 5.45454 152.242 5.16234L152.399 1.21753H155.86L156.018 5.16234C158.01 5.45454 159.741 5.99026 161.209 6.76948C162.678 7.5487 163.884 8.47402 164.828 9.54545L168.446 7.93831L170.177 10.5682L167.188 12.7597C167.817 14.513 168.132 16.2175 168.132 17.8734C168.132 19.5292 167.817 21.2825 167.188 23.1331L170.177 25.3247L168.446 27.9545L164.828 26.3474C163.884 27.3214 162.704 28.2468 161.288 29.1234C159.872 30 158.115 30.5844 156.018 30.8766ZM146.893 24.6672C148.886 26.5666 151.298 27.5162 154.13 27.5162C156.857 27.5162 159.243 26.5666 161.288 24.6672C163.333 22.7679 164.356 20.5519 164.356 18.0195C164.356 15.3896 163.333 13.1494 161.288 11.2987C159.243 9.44805 156.857 8.52273 154.13 8.52273C151.298 8.52273 148.886 9.44805 146.893 11.2987C144.9 13.1494 143.904 15.3896 143.904 18.0195C143.904 20.5519 144.9 22.7679 146.893 24.6672Z" fill="#FF005F" fill-opacity="0.25"/>
</svg>
