<svg width="150" height="60" viewBox="0 0 150 60" fill="none" xmlns="http://www.w3.org/2000/svg">
<path fill-rule="evenodd" clip-rule="evenodd" d="M42.2414 38.9655H38.4483C39.7126 31.0345 43.5057 24.3103 49.8276 18.7931C56.1494 13.2759 63.6782 10.5172 72.4138 10.5172C77.8161 10.5172 83.8793 12.2701 90.6034 15.7759C97.3276 19.2816 102.931 24.8851 107.414 32.5862V14.1379H111.207V38.9655H86.3793V35.1724H104.828C100.69 28.2759 95.5172 23.0747 89.3103 19.569C83.1034 16.0632 77.4713 14.3103 72.4138 14.3103C64.9425 14.3103 58.3333 16.6954 52.5862 21.4655C46.8391 26.2356 43.3908 32.069 42.2414 38.9655ZM126.844 60H150V6.49881e-08L126.844 1.12013e-07C128.102 2.14884 129.24 4.39022 130.259 6.72413C133.42 13.9655 135 21.7241 135 30C135 38.2759 133.42 46.0345 130.259 53.2759C129.24 55.6098 128.102 57.8512 126.844 60ZM27.3374 0H122.663C128.359 8.82199 131.207 18.822 131.207 30C131.207 41.178 128.359 51.178 122.663 60H27.3374C21.6412 51.178 18.7931 41.178 18.7931 30C18.7931 18.822 21.6412 8.82199 27.3374 0ZM23.1559 1.12013e-07L0 6.49881e-08V60H23.1559C21.8983 57.8512 20.7602 55.6098 19.7414 53.2759C16.5805 46.0345 15 38.2759 15 30C15 21.7241 16.5805 13.9655 19.7414 6.72413C20.7602 4.39022 21.8983 2.14884 23.1559 1.12013e-07Z" fill="#FF005F" fill-opacity="0.25"/>
</svg>
