<svg width="20" height="20" viewBox="0 0 20 20" fill="none" xmlns="http://www.w3.org/2000/svg">
<path d="M20 0V20H0V0H20ZM13.3817 2.85714C12.3847 2.85714 11.5346 3.20871 10.8315 3.91183C10.1283 4.61495 9.7768 5.46505 9.7768 6.46205C9.7768 6.72993 9.80653 7.0052 9.86607 7.28793C8.39287 7.21353 7.0108 6.8434 5.71987 6.17745C4.42893 5.51152 3.33335 4.62424 2.43303 3.51563C2.10567 4.07366 1.94197 4.68005 1.94197 5.33482C1.94197 5.95237 2.08705 6.52531 2.37723 7.0536C2.66741 7.5818 3.05803 8.00967 3.54911 8.33707C2.98139 8.3152 2.44924 8.16873 1.95268 7.89773L1.91964 7.87947V7.92413C1.91964 8.79467 2.19308 9.55913 2.73995 10.2177C3.28683 10.8761 3.97692 11.2909 4.81027 11.4621C4.50063 11.5435 4.18179 11.5848 3.86161 11.5848C3.65326 11.5848 3.42634 11.5662 3.18081 11.529C3.41147 12.2507 3.83558 12.8441 4.45313 13.3091C5.07067 13.7742 5.77009 14.0141 6.55134 14.029C5.24183 15.0558 3.75 15.5692 2.07589 15.5692C1.75594 15.5692 1.46576 15.5543 1.20536 15.5245C2.87947 16.6035 4.72469 17.1429 6.74107 17.1429C8.02087 17.1429 9.22247 16.9401 10.346 16.5346C11.4695 16.1291 12.4293 15.5859 13.2255 14.9051C14.0215 14.2243 14.7079 13.4412 15.2846 12.5558C15.8613 11.6704 16.2909 10.7459 16.5737 9.78233C16.8564 8.81887 16.9978 7.85347 16.9978 6.88613C16.9978 6.6778 16.9941 6.52156 16.9866 6.41741C17.6935 5.90402 18.2961 5.28272 18.7947 4.55357C18.1027 4.85121 17.4107 5.03719 16.7187 5.11161C17.5 4.64286 18.0283 3.98067 18.3036 3.125C17.5893 3.54911 16.8267 3.83929 16.0156 3.99553C15.3013 3.23661 14.4233 2.85714 13.3817 2.85714Z" fill="#555555"/>
</svg>
