<svg width="60" height="93" viewBox="0 0 60 93" fill="none" xmlns="http://www.w3.org/2000/svg">
<path d="M59.5625 86.5625V93H2.625V87.1875L32.4375 53.375C36.1458 49.1667 39.1042 45.4792 41.3125 42.3125C43.5208 39.1042 45.1042 36.1875 46.0625 33.5625C47.0625 30.8958 47.5625 28.3125 47.5625 25.8125C47.5625 22.1458 46.8333 18.9167 45.375 16.125C43.9583 13.3333 41.8333 11.1458 39 9.5625C36.1667 7.97917 32.6667 7.1875 28.5 7.1875C24.3333 7.1875 20.7083 8.08333 17.625 9.875C14.5417 11.6667 12.1667 14.1667 10.5 17.375C8.875 20.5417 8.0625 24.1458 8.0625 28.1875H0.625C0.625 23.1875 1.72917 18.6042 3.9375 14.4375C6.1875 10.2708 9.39583 6.95833 13.5625 4.5C17.7292 2 22.7083 0.75 28.5 0.75C34 0.75 38.7292 1.72917 42.6875 3.6875C46.6458 5.60417 49.6875 8.375 51.8125 12C53.9792 15.625 55.0625 20 55.0625 25.125C55.0625 27.875 54.5625 30.6458 53.5625 33.4375C52.6042 36.2292 51.2708 39.0208 49.5625 41.8125C47.8958 44.5625 45.9792 47.2917 43.8125 50C41.6875 52.7083 39.4583 55.375 37.125 58L11.75 86.5625H59.5625Z" fill="black" fill-opacity="0.05"/>
</svg>
